<svg xmlns="http://www.w3.org/2000/svg" width="1200" height="760" viewBox="0 0 1200 760" role="img" aria-label="SellerX activity list preview">

  <defs>
    <linearGradient id="bg" x1="0" y1="0" x2="1" y2="1">
      <stop offset="0%" stop-color="#667eea"/>
      <stop offset="100%" stop-color="#764ba2"/>
    </linearGradient>
    <filter id="shadow" x="-20%" y="-20%" width="140%" height="140%">
      <feDropShadow dx="0" dy="8" stdDeviation="10" flood-color="#1f2937" flood-opacity="0.18"/>
    </filter>
  </defs>

  <rect width="1200" height="760" rx="34" fill="url(#bg)"/>
  <text x="52" y="72" fill="#fff" font-family="Arial, sans-serif" font-size="30" font-weight="700">📦 SellerX</text>
  <text x="228" y="72" fill="rgba(255,255,255,0.86)" font-family="Arial, sans-serif" font-size="18">版本: 1.1.1</text>
  <rect x="850" y="38" width="126" height="44" rx="12" fill="rgba(255,255,255,0.18)" stroke="rgba(255,255,255,0.35)"/>
  <text x="879" y="66" fill="#fff" font-family="Arial, sans-serif" font-size="16" font-weight="700">显示日志</text>
  <rect x="990" y="38" width="126" height="44" rx="12" fill="rgba(255,255,255,0.18)" stroke="rgba(255,255,255,0.35)"/>
  <text x="1019" y="66" fill="#fff" font-family="Arial, sans-serif" font-size="16" font-weight="700">检查更新</text>

  <rect x="52" y="112" width="1096" height="592" rx="22" fill="#fff" filter="url(#shadow)"/>
  <text x="82" y="160" fill="#555" font-family="Arial, sans-serif" font-size="24" font-weight="700">📋 活动列表</text>
  <text x="82" y="205" fill="#666" font-family="Arial, sans-serif" font-size="18">共找到 50 个活动</text>
  <g font-family="Arial, sans-serif">
    <rect x="82" y="235" width="1036" height="102" rx="14" fill="#f8f9fa"/>
    <text x="108" y="276" fill="#333" font-size="21" font-weight="700">Discount 29/05/2026 08:59:53</text>
    <rect x="950" y="250" width="90" height="28" rx="14" fill="#16a34a"/>
    <text x="971" y="270" fill="#fff" font-size="14" font-weight="700">Ongoing</text>
    <text x="108" y="312" fill="#666" font-size="16">ID: 7645235048427128590</text>
    <text x="410" y="312" fill="#666" font-size="16">类型: Product Discount</text>
    <text x="700" y="312" fill="#666" font-size="16">开始: 2026/5/29 08:00</text>

    <rect x="82" y="359" width="1036" height="102" rx="14" fill="#f8f9fa"/>
    <text x="108" y="400" fill="#333" font-size="21" font-weight="700">E2E_PromoCode_9944264467</text>
    <rect x="950" y="374" width="90" height="28" rx="14" fill="#2563eb"/>
    <text x="961" y="394" fill="#fff" font-size="14" font-weight="700">Upcoming</text>
    <text x="108" y="436" fill="#666" font-size="16">ID: 7644794073127995150</text>
    <text x="410" y="436" fill="#666" font-size="16">类型: Promo Code</text>
    <text x="700" y="436" fill="#666" font-size="16">结束: 2026/6/03 23:59</text>

    <rect x="82" y="483" width="1036" height="102" rx="14" fill="#f8f9fa"/>
    <text x="108" y="524" fill="#333" font-size="21" font-weight="700">Flash Sale - May Campaign</text>
    <rect x="930" y="498" width="118" height="28" rx="14" fill="#f59e0b"/>
    <text x="948" y="518" fill="#fff" font-size="14" font-weight="700">Deactivated</text>
    <text x="108" y="560" fill="#666" font-size="16">ID: 76489320364577449</text>
    <text x="410" y="560" fill="#666" font-size="16">类型: Flash Sale</text>
    <text x="700" y="560" fill="#666" font-size="16">状态: 仅查询，不可删除</text>
  </g>

</svg>
